<?xml version="1.0" encoding="utf-8"?>
<svg width="187" height="27" viewBox="0 0 193.53 27.622" fill="none" xmlns="http://www.w3.org/2000/svg" xmlns:bx="https://boxy-svg.com">
  <defs>
    <style bx:fonts="Lexend Giga">@import url(https://fonts.googleapis.com/css2?family=Lexend+Giga%3Aital%2Cwght%400%2C100%3B0%2C200%3B0%2C300%3B0%2C400%3B0%2C500%3B0%2C600%3B0%2C700%3B0%2C800%3B0%2C900&amp;display=swap);</style>
  </defs>
  <path d="M47.8369 3.33667H34V6.77555H38.9869V20.1703H42.8266V6.77555H47.8369V3.33667Z" fill="#214775"/>
  <path d="M56.434 8.29058L56.1999 9.68537C55.2634 8.62725 53.9289 8.0501 52.3603 8.0501C49.1059 8.0501 46.8349 10.5751 46.8349 14.2305C46.8349 17.8858 49.1059 20.4108 52.3603 20.4108C53.9289 20.4108 55.24 19.8337 56.1999 18.7515L56.434 20.1703H59.6182V8.29058H56.434ZM53.2265 17.2365C51.6111 17.2365 50.4872 16.01 50.4872 14.2305C50.4872 12.4509 51.6111 11.2244 53.2265 11.2244C54.8654 11.2244 55.9892 12.4509 55.9892 14.2305C55.9892 16.01 54.8654 17.2365 53.2265 17.2365Z" fill="#214775"/>
  <path d="M62.3748 20.1703H66.0506V3.33667H62.3748V20.1703Z" fill="#214775"/>
  <path d="M80.5522 20.1703L75.7058 13.9178L79.8732 8.29058H75.6823L72.4748 12.7876V3.33667H68.8224V20.1703H72.4748V15.4569L76.0101 20.1703H80.5522Z" fill="#214775"/>
  <path d="M83.5673 7.11222C84.8316 7.11222 85.7212 6.27054 85.7212 5.06814C85.7212 3.86573 84.8316 3 83.5673 3C82.303 3 81.4133 3.86573 81.4133 5.06814C81.4133 6.27054 82.303 7.11222 83.5673 7.11222ZM81.7177 20.1703H85.3935V8.29058H81.7177V20.1703Z" fill="#214775"/>
  <path d="M95.3061 8.02605C93.7609 8.02605 92.4498 8.62725 91.5835 9.68537L91.3494 8.29058H88.1653V20.1703H91.8411V13.9178C91.8411 12.3307 92.801 11.2244 94.2292 11.2244C95.5403 11.2244 96.3363 12.1383 96.3363 13.6774V20.1703H100.012V13.4609C100.012 10.0461 98.1625 8.02605 95.3061 8.02605Z" fill="#214775"/>
  <path d="M112.261 18.2224C113.759 17.2605 114.625 15.7214 114.625 13.9419C114.625 12.6433 114.251 11.6092 113.455 10.6713L115 8.81964L112.308 6.82365L110.95 8.55511C110.154 8.17034 109.264 7.97796 108.327 7.97796C104.605 7.97796 101.983 10.4549 101.983 13.9419C101.983 17.5972 104.488 19.9539 108.351 19.9539C110.013 19.9539 110.926 20.6513 110.926 21.8537C110.926 23.0321 109.873 23.8257 108.304 23.8257C106.571 23.8257 105.588 22.9359 105.658 21.3487H102.123C101.795 24.7154 104.3 27 108.304 27C112.19 27 114.719 25.0281 114.719 21.998C114.719 20.2906 113.829 18.9439 112.261 18.2224ZM108.327 16.7555C106.712 16.7555 105.612 15.6253 105.612 13.9419C105.612 12.2585 106.689 11.1523 108.327 11.1523C109.966 11.1523 111.043 12.2585 111.043 13.9419C111.043 15.6253 109.966 16.7555 108.327 16.7555Z" fill="#214775"/>
  <path d="M14.7307 0C17.6199 0 19.9839 2.5136 19.9839 5.58589V10.7914C19.9839 13.8632 17.6199 16.3761 14.7307 16.3761H6.69112C5.60796 17.295 3.25819 19.31 3.25819 19.31V15.9523C1.35066 15.1125 0 13.1123 0 10.7914V5.58589C0 2.5136 2.36425 0 5.25435 0H14.7307Z" fill="#214775"/>
  <path d="M29.8448 6.87946V10.2372C31.7514 11.0769 33.1022 13.078 33.1022 15.398V20.6039C33.1022 23.6758 30.738 26.1895 27.8484 26.1895H18.372C15.4825 26.1895 13.1184 23.6758 13.1184 20.6036V17.0607H15.3665C18.2567 17.0607 20.5425 14.4381 20.7713 11.434L20.7783 9.8134H26.4115C27.4942 8.89467 29.8448 6.87946 29.8448 6.87946Z" fill="#00A4DF"/>
  <text style="fill: rgb(0, 164, 223); font-family: &quot;Lexend Giga&quot;; font-size: 21px; font-weight: 600; letter-spacing: -3.9px; word-spacing: 6.5px; white-space: pre;" x="114.646" y="20.835">Market</text>
  <text style="white-space: pre; fill: rgb(51, 51, 51); font-family: Arial, sans-serif; font-size: 2.9px;" x="117.963" y="11.921"> </text>
</svg>